<svg width="227" height="60" viewBox="0 0 227 60" fill="none" xmlns="http://www.w3.org/2000/svg">
<path d="M30.16 29.4901C31.1911 29.4901 32.0297 30.3291 32.0297 31.3598C32.0297 32.3909 31.1911 33.2296 30.16 33.2296C29.1292 33.2296 28.2902 32.3909 28.2902 31.3598C28.2902 30.3291 29.1292 29.4901 30.16 29.4901ZM25.2165 12.0362C25.2165 13.0673 24.3775 13.9059 23.3468 13.9059C22.3157 13.9059 21.4767 13.0673 21.4767 12.0362C21.4767 11.0051 22.3157 10.1664 23.3468 10.1664C24.3775 10.1664 25.2165 11.0051 25.2165 12.0362ZM14.1676 45.0743C13.1365 45.0743 12.2978 44.2353 12.2978 43.2045C12.2978 42.1734 13.1365 41.3345 14.1676 41.3345C15.1987 41.3345 16.0373 42.1734 16.0373 43.2045C16.0373 44.2353 15.1987 45.0743 14.1676 45.0743ZM19.1536 24.0507C18.1228 24.0507 17.2838 23.2121 17.2838 22.181C17.2838 21.1499 18.1228 20.3112 19.1536 20.3112C20.1847 20.3112 21.0236 21.1499 21.0236 22.181C21.0236 23.2121 20.1847 24.0507 19.1536 24.0507ZM41.8464 24.0507C40.8153 24.0507 39.9764 23.2121 39.9764 22.181C39.9764 21.1499 40.8153 20.3112 41.8464 20.3112C42.8772 20.3112 43.7162 21.1499 43.7162 22.181C43.7162 23.2121 42.8772 24.0507 41.8464 24.0507ZM44.9627 43.2045C44.9627 42.1734 45.8013 41.3345 46.8324 41.3345C47.8635 41.3345 48.7022 42.1734 48.7022 43.2045C48.7022 44.2353 47.8635 45.0743 46.8324 45.0743C45.8013 45.0743 44.9627 44.2353 44.9627 43.2045ZM42.3277 54.5806V49.9154L44.8879 47.3555C45.4792 47.6338 46.1367 47.794 46.8324 47.794C49.363 47.794 51.4218 45.7351 51.4218 43.2045C51.4218 40.6737 49.363 38.6148 46.8324 38.6148C44.3019 38.6148 42.243 40.6737 42.243 43.2045C42.243 44.0495 42.4767 44.8396 42.8765 45.5204L39.6081 48.7889V55.7111C38.4603 56.1189 37.2789 56.4553 36.067 56.7076V45.0118L43.2063 37.8725V26.5647C45.075 25.9836 46.4359 24.2382 46.4359 22.181C46.4359 19.6504 44.377 17.5916 41.8464 17.5916C39.3155 17.5916 37.2567 19.6504 37.2567 22.181C37.2567 24.2382 38.6175 25.9836 40.4866 26.5647V36.746L33.3473 43.8853V57.1314C32.411 57.2288 31.4616 57.2803 30.5 57.2803C29.5384 57.2803 28.589 57.2288 27.6527 57.1314V43.8853L20.5134 36.746V26.5647C22.3825 25.9836 23.7433 24.2382 23.7433 22.181C23.7433 19.6504 21.6844 17.5916 19.1536 17.5916C16.623 17.5916 14.5641 19.6504 14.5641 22.181C14.5641 24.2382 15.925 25.9836 17.7937 26.5647V37.8725L24.933 45.0118V56.7076C23.7211 56.4553 22.5397 56.1189 21.3919 55.7111V48.7889L18.1235 45.5204C18.5233 44.8396 18.757 44.0495 18.757 43.2045C18.757 40.6737 16.6981 38.6148 14.1676 38.6148C11.637 38.6148 9.57815 40.6737 9.57815 43.2045C9.57815 45.7351 11.637 47.794 14.1676 47.794C14.8633 47.794 15.5208 47.6338 16.1121 47.3555L18.6722 49.9154V54.5806C9.53659 50.1666 3.21969 40.8073 3.21969 30C3.21969 23.6282 5.4215 17.7644 9.0965 13.1158V25.7865C7.22742 26.3672 5.86658 28.1126 5.86658 30.1702C5.86658 32.7007 7.92546 34.7596 10.4563 34.7596C12.9869 34.7596 15.0458 32.7007 15.0458 30.1702C15.0458 28.1126 13.6849 26.3672 11.8162 25.7865V10.1495C16.0975 6.11747 21.6741 3.44831 27.8511 2.85032V5.32503L25.2913 7.88484C24.7 7.60662 24.0425 7.44674 23.3468 7.44674C20.8159 7.44674 18.757 9.50561 18.757 12.0362C18.757 14.5667 20.8159 16.6256 23.3468 16.6256C25.8773 16.6256 27.9362 14.5667 27.9362 12.0362C27.9362 11.1909 27.7025 10.4011 27.3023 9.72035L30.5708 6.45153V2.72136C32.4083 2.72635 34.2036 2.91315 35.9394 3.26549V10.9938L28.8001 18.133V26.9762C26.9314 27.5572 25.5705 29.3026 25.5705 31.3598C25.5705 33.8907 27.6294 35.9496 30.16 35.9496C32.6908 35.9496 34.7494 33.8907 34.7494 31.3598C34.7494 29.3026 33.3885 27.5572 31.5198 26.9762V19.2595L38.6591 12.1203V3.96718C42.6362 5.21634 46.2195 7.35765 49.1838 10.1495V25.7865C47.3151 26.3672 45.9542 28.1126 45.9542 30.1702C45.9542 32.7007 48.0131 34.7596 50.5437 34.7596C53.0745 34.7596 55.1334 32.7007 55.1334 30.1702C55.1334 28.1126 53.7726 26.3672 51.9035 25.7865V13.1158C55.5785 17.7644 57.7803 23.6282 57.7803 30C57.7803 40.8073 51.4634 50.1666 42.3277 54.5806ZM10.4563 28.3001C11.4871 28.3001 12.3261 29.1391 12.3261 30.1702C12.3261 31.201 11.4871 32.0399 10.4563 32.0399C9.42524 32.0399 8.58627 31.201 8.58627 30.1702C8.58627 29.1391 9.42524 28.3001 10.4563 28.3001ZM50.5437 28.3001C51.5748 28.3001 52.4137 29.1391 52.4137 30.1702C52.4137 31.201 51.5748 32.0399 50.5437 32.0399C49.5129 32.0399 48.6739 31.201 48.6739 30.1702C48.6739 29.1391 49.5129 28.3001 50.5437 28.3001ZM30.5 -8.38496e-07C13.9578 -8.38496e-07 0.5 13.4578 0.5 30C0.5 46.5422 13.9578 60 30.5 60C47.0422 60 60.5 46.5422 60.5 30C60.5 13.4578 47.0422 -8.38496e-07 30.5 -8.38496e-07Z" fill="white"/>
<path d="M71.556 25L78.668 5.4H83.736L90.876 25H86.2L84.828 20.94H77.548L76.148 25H71.556ZM78.78 17.412H83.624L81.16 10.272L78.78 17.412ZM93.8381 25L88.9101 11.112H93.4741L96.4981 21.024L99.4941 11.112H104.03L99.1021 25H93.8381ZM108.013 25.336C107.21 25.336 106.463 25.1773 105.773 24.86C105.082 24.524 104.522 24.048 104.093 23.432C103.682 22.7973 103.477 22.032 103.477 21.136C103.477 20.1093 103.747 19.2787 104.289 18.644C104.83 17.9907 105.549 17.5147 106.445 17.216C107.359 16.9173 108.358 16.768 109.441 16.768H112.577C112.577 16.2827 112.493 15.8533 112.325 15.48C112.157 15.1067 111.905 14.8173 111.569 14.612C111.233 14.388 110.813 14.276 110.309 14.276C109.786 14.276 109.31 14.388 108.881 14.612C108.451 14.836 108.181 15.2187 108.069 15.76H103.897C103.971 14.7333 104.317 13.856 104.933 13.128C105.549 12.3813 106.333 11.8027 107.285 11.392C108.255 10.9813 109.291 10.776 110.393 10.776C111.681 10.776 112.81 11.0187 113.781 11.504C114.77 11.9707 115.535 12.652 116.077 13.548C116.618 14.4253 116.889 15.4893 116.889 16.74V20.296C116.889 20.7067 116.945 21.024 117.057 21.248C117.187 21.472 117.514 21.584 118.037 21.584V25C117.141 25 116.394 24.944 115.797 24.832C115.199 24.72 114.695 24.5147 114.285 24.216C113.874 23.8987 113.501 23.4413 113.165 22.844C112.549 23.6653 111.821 24.2907 110.981 24.72C110.141 25.1307 109.151 25.336 108.013 25.336ZM109.525 22.032C110.066 22.032 110.561 21.92 111.009 21.696C111.475 21.4533 111.849 21.1173 112.129 20.688C112.409 20.2587 112.549 19.7733 112.549 19.232V19.064H109.889C109.515 19.064 109.17 19.12 108.853 19.232C108.535 19.3253 108.283 19.484 108.097 19.708C107.91 19.9133 107.817 20.2027 107.817 20.576C107.817 21.1173 107.994 21.5 108.349 21.724C108.703 21.9293 109.095 22.032 109.525 22.032ZM124.868 25.336C123.561 25.336 122.441 25 121.508 24.328C120.574 23.656 119.856 22.7693 119.352 21.668C118.866 20.548 118.624 19.3347 118.624 18.028C118.624 16.7213 118.876 15.5173 119.38 14.416C119.884 13.3147 120.602 12.4373 121.536 11.784C122.469 11.112 123.58 10.776 124.868 10.776C125.745 10.776 126.576 10.9627 127.36 11.336C128.144 11.6907 128.769 12.2227 129.236 12.932V5.4H133.576V25H129.236V23.096C128.769 23.8613 128.153 24.4307 127.388 24.804C126.622 25.1587 125.782 25.336 124.868 25.336ZM126.128 21.556C126.706 21.556 127.229 21.416 127.696 21.136C128.162 20.856 128.536 20.4547 128.816 19.932C129.096 19.3907 129.236 18.7653 129.236 18.056C129.236 17.3653 129.105 16.7587 128.844 16.236C128.582 15.7133 128.218 15.3027 127.752 15.004C127.285 14.7053 126.744 14.556 126.128 14.556C125.661 14.556 125.185 14.668 124.7 14.892C124.233 15.116 123.841 15.4893 123.524 16.012C123.206 16.516 123.048 17.188 123.048 18.028C123.048 18.6813 123.169 19.2787 123.412 19.82C123.673 20.3427 124.028 20.7627 124.476 21.08C124.942 21.3973 125.493 21.556 126.128 21.556ZM139.458 25.336C138.655 25.336 137.909 25.1773 137.218 24.86C136.527 24.524 135.967 24.048 135.538 23.432C135.127 22.7973 134.922 22.032 134.922 21.136C134.922 20.1093 135.193 19.2787 135.734 18.644C136.275 17.9907 136.994 17.5147 137.89 17.216C138.805 16.9173 139.803 16.768 140.886 16.768H144.022C144.022 16.2827 143.938 15.8533 143.77 15.48C143.602 15.1067 143.35 14.8173 143.014 14.612C142.678 14.388 142.258 14.276 141.754 14.276C141.231 14.276 140.755 14.388 140.326 14.612C139.897 14.836 139.626 15.2187 139.514 15.76H135.342C135.417 14.7333 135.762 13.856 136.378 13.128C136.994 12.3813 137.778 11.8027 138.73 11.392C139.701 10.9813 140.737 10.776 141.838 10.776C143.126 10.776 144.255 11.0187 145.226 11.504C146.215 11.9707 146.981 12.652 147.522 13.548C148.063 14.4253 148.334 15.4893 148.334 16.74V20.296C148.334 20.7067 148.39 21.024 148.502 21.248C148.633 21.472 148.959 21.584 149.482 21.584V25C148.586 25 147.839 24.944 147.242 24.832C146.645 24.72 146.141 24.5147 145.73 24.216C145.319 23.8987 144.946 23.4413 144.61 22.844C143.994 23.6653 143.266 24.2907 142.426 24.72C141.586 25.1307 140.597 25.336 139.458 25.336ZM140.97 22.032C141.511 22.032 142.006 21.92 142.454 21.696C142.921 21.4533 143.294 21.1173 143.574 20.688C143.854 20.2587 143.994 19.7733 143.994 19.232V19.064H141.334C140.961 19.064 140.615 19.12 140.298 19.232C139.981 19.3253 139.729 19.484 139.542 19.708C139.355 19.9133 139.262 20.2027 139.262 20.576C139.262 21.1173 139.439 21.5 139.794 21.724C140.149 21.9293 140.541 22.032 140.97 22.032ZM79.088 55.336C77.8 55.336 76.6147 55.0653 75.532 54.524C74.4493 53.964 73.5813 53.1427 72.928 52.06C72.2747 50.9773 71.948 49.6427 71.948 48.056C71.948 46.4693 72.2653 45.1347 72.9 44.052C73.5347 42.9693 74.3933 42.1573 75.476 41.616C76.5587 41.056 77.7627 40.776 79.088 40.776C80.4693 40.776 81.6827 41.0653 82.728 41.644C83.792 42.204 84.6227 43.016 85.22 44.08C85.836 45.1253 86.144 46.376 86.144 47.832C86.144 48.0187 86.1347 48.224 86.116 48.448C86.116 48.6533 86.0973 48.868 86.06 49.092H76.26C76.316 49.764 76.4747 50.296 76.736 50.688C77.016 51.08 77.352 51.3693 77.744 51.556C78.1547 51.724 78.556 51.808 78.948 51.808C79.4893 51.808 79.9467 51.696 80.32 51.472C80.6933 51.248 80.9827 50.9027 81.188 50.436H85.808C85.6027 51.3133 85.192 52.1253 84.576 52.872C83.96 53.6187 83.1853 54.216 82.252 54.664C81.3373 55.112 80.2827 55.336 79.088 55.336ZM76.26 46.684H81.692C81.692 45.9187 81.44 45.3213 80.936 44.892C80.432 44.4627 79.7973 44.248 79.032 44.248C78.2853 44.248 77.6693 44.472 77.184 44.92C76.6987 45.3493 76.3907 45.9373 76.26 46.684ZM96.9271 55.336C94.8924 55.336 93.1564 54.9067 91.7191 54.048C90.2817 53.1707 89.1804 51.976 88.4151 50.464C87.6684 48.952 87.2951 47.216 87.2951 45.256C87.2951 43.296 87.6591 41.5507 88.3871 40.02C89.1337 38.4707 90.2257 37.2573 91.6631 36.38C93.1004 35.5027 94.8551 35.064 96.9271 35.064C99.3537 35.064 101.351 35.68 102.919 36.912C104.487 38.1253 105.448 39.852 105.803 42.092H100.959C100.772 41.14 100.315 40.4027 99.5871 39.88C98.8777 39.3573 97.9631 39.096 96.8431 39.096C95.8724 39.096 95.0044 39.3293 94.2391 39.796C93.4737 40.244 92.8764 40.9253 92.4471 41.84C92.0177 42.736 91.8031 43.8747 91.8031 45.256C91.8031 46.6 92.0084 47.7293 92.4191 48.644C92.8484 49.54 93.4457 50.2213 94.2111 50.688C94.9764 51.136 95.8537 51.36 96.8431 51.36C97.9631 51.36 98.8777 51.1267 99.5871 50.66C100.315 50.1747 100.772 49.4933 100.959 48.616H105.803C105.448 50.7067 104.487 52.3493 102.919 53.544C101.351 54.7387 99.3537 55.336 96.9271 55.336ZM114.339 55.336C112.995 55.336 111.763 55.056 110.643 54.496C109.541 53.9173 108.655 53.0867 107.983 52.004C107.329 50.9213 107.003 49.6053 107.003 48.056C107.003 46.5813 107.32 45.3027 107.955 44.22C108.608 43.1373 109.495 42.2973 110.615 41.7C111.735 41.084 112.995 40.776 114.395 40.776C115.888 40.776 117.185 41.0933 118.287 41.728C119.388 42.344 120.247 43.2027 120.863 44.304C121.479 45.3867 121.787 46.6373 121.787 48.056C121.787 49.5307 121.46 50.8187 120.807 51.92C120.153 53.0027 119.267 53.8427 118.147 54.44C117.027 55.0373 115.757 55.336 114.339 55.336ZM114.367 51.584C114.983 51.584 115.515 51.4347 115.963 51.136C116.411 50.8373 116.756 50.4173 116.999 49.876C117.26 49.3347 117.391 48.7187 117.391 48.028C117.391 47.2627 117.251 46.628 116.971 46.124C116.709 45.6013 116.345 45.2093 115.879 44.948C115.431 44.6867 114.927 44.556 114.367 44.556C113.788 44.556 113.265 44.696 112.799 44.976C112.351 45.256 111.996 45.6573 111.735 46.18C111.473 46.7027 111.343 47.328 111.343 48.056C111.343 48.7467 111.464 49.3627 111.707 49.904C111.968 50.4267 112.323 50.8373 112.771 51.136C113.219 51.4347 113.751 51.584 114.367 51.584ZM123.035 55V41.112H127.347V42.68C127.832 42.064 128.411 41.5973 129.083 41.28C129.773 40.944 130.52 40.776 131.323 40.776C132.2 40.776 133.068 40.9907 133.927 41.42C134.785 41.8493 135.467 42.512 135.971 43.408C136.419 42.6987 137.035 42.0827 137.819 41.56C138.603 41.0373 139.517 40.776 140.563 40.776C141.683 40.776 142.663 41 143.503 41.448C144.343 41.896 144.987 42.568 145.435 43.464C145.901 44.3413 146.135 45.4333 146.135 46.74V55H141.851V47.3C141.851 46.4227 141.636 45.7413 141.207 45.256C140.777 44.752 140.143 44.5 139.303 44.5C138.444 44.5 137.8 44.752 137.371 45.256C136.96 45.76 136.755 46.4413 136.755 47.3V55H132.443V47.3C132.443 46.46 132.228 45.788 131.799 45.284C131.388 44.7613 130.753 44.5 129.895 44.5C129.055 44.5 128.42 44.752 127.991 45.256C127.561 45.7413 127.347 46.4227 127.347 47.3V55H123.035ZM147.589 55V41.112H151.901V42.68C152.387 42.064 152.965 41.5973 153.637 41.28C154.328 40.944 155.075 40.776 155.877 40.776C156.755 40.776 157.623 40.9907 158.481 41.42C159.34 41.8493 160.021 42.512 160.525 43.408C160.973 42.6987 161.589 42.0827 162.373 41.56C163.157 41.0373 164.072 40.776 165.117 40.776C166.237 40.776 167.217 41 168.057 41.448C168.897 41.896 169.541 42.568 169.989 43.464C170.456 44.3413 170.689 45.4333 170.689 46.74V55H166.405V47.3C166.405 46.4227 166.191 45.7413 165.761 45.256C165.332 44.752 164.697 44.5 163.857 44.5C162.999 44.5 162.355 44.752 161.925 45.256C161.515 45.76 161.309 46.4413 161.309 47.3V55H156.997V47.3C156.997 46.46 156.783 45.788 156.353 45.284C155.943 44.7613 155.308 44.5 154.449 44.5C153.609 44.5 152.975 44.752 152.545 45.256C152.116 45.7413 151.901 46.4227 151.901 47.3V55H147.589ZM178.92 55.336C177.632 55.336 176.447 55.0653 175.364 54.524C174.281 53.964 173.413 53.1427 172.76 52.06C172.107 50.9773 171.78 49.6427 171.78 48.056C171.78 46.4693 172.097 45.1347 172.732 44.052C173.367 42.9693 174.225 42.1573 175.308 41.616C176.391 41.056 177.595 40.776 178.92 40.776C180.301 40.776 181.515 41.0653 182.56 41.644C183.624 42.204 184.455 43.016 185.052 44.08C185.668 45.1253 185.976 46.376 185.976 47.832C185.976 48.0187 185.967 48.224 185.948 48.448C185.948 48.6533 185.929 48.868 185.892 49.092H176.092C176.148 49.764 176.307 50.296 176.568 50.688C176.848 51.08 177.184 51.3693 177.576 51.556C177.987 51.724 178.388 51.808 178.78 51.808C179.321 51.808 179.779 51.696 180.152 51.472C180.525 51.248 180.815 50.9027 181.02 50.436H185.64C185.435 51.3133 185.024 52.1253 184.408 52.872C183.792 53.6187 183.017 54.216 182.084 54.664C181.169 55.112 180.115 55.336 178.92 55.336ZM176.092 46.684H181.524C181.524 45.9187 181.272 45.3213 180.768 44.892C180.264 44.4627 179.629 44.248 178.864 44.248C178.117 44.248 177.501 44.472 177.016 44.92C176.531 45.3493 176.223 45.9373 176.092 46.684ZM187.183 55V41.112H191.495V43.268C191.98 42.5587 192.596 41.9707 193.343 41.504C194.09 41.0187 194.948 40.776 195.919 40.776V45.34H194.715C193.632 45.34 192.82 45.5827 192.279 46.068C191.756 46.5533 191.495 47.356 191.495 48.476V55H187.183ZM203.583 55.336C202.183 55.336 200.951 55.0373 199.887 54.44C198.823 53.8427 197.983 53.0027 197.367 51.92C196.77 50.8187 196.471 49.5307 196.471 48.056C196.471 46.6373 196.761 45.3867 197.339 44.304C197.918 43.2027 198.739 42.344 199.803 41.728C200.867 41.0933 202.127 40.776 203.583 40.776C205.226 40.776 206.663 41.2053 207.895 42.064C209.127 42.904 209.958 44.248 210.387 46.096H205.767C205.581 45.5547 205.291 45.1533 204.899 44.892C204.526 44.612 204.059 44.472 203.499 44.472C202.883 44.472 202.379 44.64 201.987 44.976C201.614 45.312 201.334 45.7507 201.147 46.292C200.979 46.8333 200.895 47.4213 200.895 48.056C200.895 48.672 200.979 49.26 201.147 49.82C201.334 50.3613 201.614 50.8 201.987 51.136C202.379 51.472 202.883 51.64 203.499 51.64C204.059 51.64 204.526 51.5 204.899 51.22C205.291 50.94 205.581 50.5387 205.767 50.016H210.387C210.126 51.1547 209.678 52.116 209.043 52.9C208.409 53.684 207.625 54.2907 206.691 54.72C205.777 55.1307 204.741 55.336 203.583 55.336ZM218.459 55.336C217.171 55.336 215.986 55.0653 214.903 54.524C213.82 53.964 212.952 53.1427 212.299 52.06C211.646 50.9773 211.319 49.6427 211.319 48.056C211.319 46.4693 211.636 45.1347 212.271 44.052C212.906 42.9693 213.764 42.1573 214.847 41.616C215.93 41.056 217.134 40.776 218.459 40.776C219.84 40.776 221.054 41.0653 222.099 41.644C223.163 42.204 223.994 43.016 224.591 44.08C225.207 45.1253 225.515 46.376 225.515 47.832C225.515 48.0187 225.506 48.224 225.487 48.448C225.487 48.6533 225.468 48.868 225.431 49.092H215.631C215.687 49.764 215.846 50.296 216.107 50.688C216.387 51.08 216.723 51.3693 217.115 51.556C217.526 51.724 217.927 51.808 218.319 51.808C218.86 51.808 219.318 51.696 219.691 51.472C220.064 51.248 220.354 50.9027 220.559 50.436H225.179C224.974 51.3133 224.563 52.1253 223.947 52.872C223.331 53.6187 222.556 54.216 221.623 54.664C220.708 55.112 219.654 55.336 218.459 55.336ZM215.631 46.684H221.063C221.063 45.9187 220.811 45.3213 220.307 44.892C219.803 44.4627 219.168 44.248 218.403 44.248C217.656 44.248 217.04 44.472 216.555 44.92C216.07 45.3493 215.762 45.9373 215.631 46.684Z" fill="white"/>
</svg>
