<svg width="291" height="40" viewBox="0 0 291 40" fill="none" xmlns="http://www.w3.org/2000/svg">
<path d="M20.2733 19.6601C20.9607 19.6601 21.5198 20.2194 21.5198 20.9066C21.5198 21.594 20.9607 22.1531 20.2733 22.1531C19.5861 22.1531 19.0268 21.594 19.0268 20.9066C19.0268 20.2194 19.5861 19.6601 20.2733 19.6601ZM16.9777 8.02411C16.9777 8.71151 16.4184 9.27061 15.7312 9.27061C15.0438 9.27061 14.4845 8.71151 14.4845 8.02411C14.4845 7.33671 15.0438 6.77762 15.7312 6.77762C16.4184 6.77762 16.9777 7.33671 16.9777 8.02411ZM9.61172 30.0495C8.92432 30.0495 8.36522 29.4902 8.36522 28.803C8.36522 28.1156 8.92432 27.5563 9.61172 27.5563C10.2991 27.5563 10.8582 28.1156 10.8582 28.803C10.8582 29.4902 10.2991 30.0495 9.61172 30.0495ZM12.9357 16.0338C12.2485 16.0338 11.6892 15.4747 11.6892 14.7873C11.6892 14.0999 12.2485 13.5408 12.9357 13.5408C13.6231 13.5408 14.1824 14.0999 14.1824 14.7873C14.1824 15.4747 13.6231 16.0338 12.9357 16.0338ZM28.0643 16.0338C27.3769 16.0338 26.8176 15.4747 26.8176 14.7873C26.8176 14.0999 27.3769 13.5408 28.0643 13.5408C28.7515 13.5408 29.3108 14.0999 29.3108 14.7873C29.3108 15.4747 28.7515 16.0338 28.0643 16.0338ZM30.1418 28.803C30.1418 28.1156 30.7009 27.5563 31.3883 27.5563C32.0757 27.5563 32.6348 28.1156 32.6348 28.803C32.6348 29.4902 32.0757 30.0495 31.3883 30.0495C30.7009 30.0495 30.1418 29.4902 30.1418 28.803ZM28.3852 36.387V33.2769L30.0919 31.5704C30.4861 31.7558 30.9245 31.8627 31.3883 31.8627C33.0753 31.8627 34.4479 30.4901 34.4479 28.803C34.4479 27.1158 33.0753 25.7432 31.3883 25.7432C29.7012 25.7432 28.3287 27.1158 28.3287 28.803C28.3287 29.3663 28.4844 29.8931 28.751 30.3469L26.572 32.5259V37.1407C25.8069 37.4126 25.0193 37.6369 24.2113 37.8051V30.0079L28.9709 25.2484V17.7098C30.2167 17.3224 31.1239 16.1588 31.1239 14.7873C31.1239 13.1003 29.7513 11.7277 28.0643 11.7277C26.377 11.7277 25.0044 13.1003 25.0044 14.7873C25.0044 16.1588 25.9117 17.3224 27.1577 17.7098V24.4974L22.3982 29.2569V38.0876C21.774 38.1525 21.1411 38.1869 20.5 38.1869C19.8589 38.1869 19.226 38.1525 18.6018 38.0876V29.2569L13.8423 24.4974V17.7098C15.0883 17.3224 15.9956 16.1588 15.9956 14.7873C15.9956 13.1003 14.623 11.7277 12.9357 11.7277C11.2487 11.7277 9.87609 13.1003 9.87609 14.7873C9.87609 16.1588 10.7833 17.3224 12.0291 17.7098V25.2484L16.7887 30.0079V37.8051C15.9807 37.6369 15.1931 37.4126 14.428 37.1407V32.5259L12.249 30.3469C12.5156 29.8931 12.6713 29.3663 12.6713 28.803C12.6713 27.1158 11.2988 25.7432 9.61172 25.7432C7.92468 25.7432 6.5521 27.1158 6.5521 28.803C6.5521 30.4901 7.92468 31.8627 9.61172 31.8627C10.0755 31.8627 10.5138 31.7558 10.9081 31.5704L12.6148 33.2769V36.387C6.5244 33.4444 2.31313 27.2049 2.31313 20C2.31313 15.7522 3.781 11.8429 6.231 8.74387V17.191C4.98495 17.5781 4.07772 18.7418 4.07772 20.1135C4.07772 21.8005 5.45031 23.1731 7.13756 23.1731C8.8246 23.1731 10.1972 21.8005 10.1972 20.1135C10.1972 18.7418 9.28996 17.5781 8.04412 17.191V6.76631C10.8983 4.07832 14.6161 2.29887 18.7341 1.90021V3.55002L17.0275 5.25656C16.6333 5.07108 16.195 4.96449 15.7312 4.96449C14.0439 4.96449 12.6713 6.33708 12.6713 8.02411C12.6713 9.71115 14.0439 11.0837 15.7312 11.0837C17.4182 11.0837 18.7908 9.71115 18.7908 8.02411C18.7908 7.46058 18.635 6.93407 18.3682 6.48023L20.5472 4.30102V1.81424C21.7722 1.81756 22.9691 1.9421 24.1262 2.177V7.32918L19.3667 12.0887V17.9841C18.1209 18.3715 17.2137 19.5351 17.2137 20.9066C17.2137 22.5938 18.5863 23.9664 20.2733 23.9664C21.9606 23.9664 23.3329 22.5938 23.3329 20.9066C23.3329 19.5351 22.4257 18.3715 21.1799 17.9841V12.8397L25.9394 8.08018V2.64479C28.5908 3.47756 30.9796 4.9051 32.9559 6.76631V17.191C31.71 17.5781 30.8028 18.7418 30.8028 20.1135C30.8028 21.8005 32.1754 23.1731 33.8624 23.1731C35.5497 23.1731 36.9223 21.8005 36.9223 20.1135C36.9223 18.7418 36.015 17.5781 34.769 17.191V8.74387C37.219 11.8429 38.6869 15.7522 38.6869 20C38.6869 27.2049 34.4756 33.4444 28.3852 36.387ZM7.13756 18.8667C7.82474 18.8667 8.38406 19.4261 8.38406 20.1135C8.38406 20.8006 7.82474 21.36 7.13756 21.36C6.45016 21.36 5.89085 20.8006 5.89085 20.1135C5.89085 19.4261 6.45016 18.8667 7.13756 18.8667ZM33.8624 18.8667C34.5498 18.8667 35.1092 19.4261 35.1092 20.1135C35.1092 20.8006 34.5498 21.36 33.8624 21.36C33.1753 21.36 32.6159 20.8006 32.6159 20.1135C32.6159 19.4261 33.1753 18.8667 33.8624 18.8667ZM20.5 -5.58997e-07C9.47189 -5.58997e-07 0.5 8.97189 0.5 20C0.5 31.0281 9.47189 40 20.5 40C31.5281 40 40.5 31.0281 40.5 20C40.5 8.97189 31.5281 -5.58997e-07 20.5 -5.58997e-07Z" fill="white"/>
<path d="M51.556 30L58.668 10.4H63.736L70.876 30H66.2L64.828 25.94H57.548L56.148 30H51.556ZM58.78 22.412H63.624L61.16 15.272L58.78 22.412ZM73.8381 30L68.9101 16.112H73.4741L76.4981 26.024L79.4941 16.112H84.0301L79.1021 30H73.8381ZM88.0127 30.336C87.21 30.336 86.4633 30.1773 85.7727 29.86C85.082 29.524 84.522 29.048 84.0927 28.432C83.682 27.7973 83.4767 27.032 83.4767 26.136C83.4767 25.1093 83.7473 24.2787 84.2887 23.644C84.83 22.9907 85.5487 22.5147 86.4447 22.216C87.3593 21.9173 88.358 21.768 89.4407 21.768H92.5767C92.5767 21.2827 92.4927 20.8533 92.3247 20.48C92.1567 20.1067 91.9047 19.8173 91.5687 19.612C91.2327 19.388 90.8127 19.276 90.3087 19.276C89.786 19.276 89.31 19.388 88.8807 19.612C88.4513 19.836 88.1807 20.2187 88.0687 20.76H83.8967C83.9713 19.7333 84.3167 18.856 84.9327 18.128C85.5487 17.3813 86.3327 16.8027 87.2847 16.392C88.2553 15.9813 89.2913 15.776 90.3927 15.776C91.6807 15.776 92.81 16.0187 93.7807 16.504C94.77 16.9707 95.5353 17.652 96.0767 18.548C96.618 19.4253 96.8887 20.4893 96.8887 21.74V25.296C96.8887 25.7067 96.9447 26.024 97.0567 26.248C97.1873 26.472 97.514 26.584 98.0367 26.584V30C97.1407 30 96.394 29.944 95.7967 29.832C95.1993 29.72 94.6953 29.5147 94.2847 29.216C93.874 28.8987 93.5007 28.4413 93.1647 27.844C92.5487 28.6653 91.8207 29.2907 90.9807 29.72C90.1407 30.1307 89.1513 30.336 88.0127 30.336ZM89.5247 27.032C90.066 27.032 90.5607 26.92 91.0087 26.696C91.4753 26.4533 91.8487 26.1173 92.1287 25.688C92.4087 25.2587 92.5487 24.7733 92.5487 24.232V24.064H89.8887C89.5153 24.064 89.17 24.12 88.8527 24.232C88.5353 24.3253 88.2833 24.484 88.0967 24.708C87.91 24.9133 87.8167 25.2027 87.8167 25.576C87.8167 26.1173 87.994 26.5 88.3487 26.724C88.7033 26.9293 89.0953 27.032 89.5247 27.032ZM104.868 30.336C103.561 30.336 102.441 30 101.508 29.328C100.574 28.656 99.8558 27.7693 99.3518 26.668C98.8664 25.548 98.6238 24.3347 98.6238 23.028C98.6238 21.7213 98.8758 20.5173 99.3798 19.416C99.8838 18.3147 100.602 17.4373 101.536 16.784C102.469 16.112 103.58 15.776 104.868 15.776C105.745 15.776 106.576 15.9627 107.36 16.336C108.144 16.6907 108.769 17.2227 109.236 17.932V10.4H113.576V30H109.236V28.096C108.769 28.8613 108.153 29.4307 107.388 29.804C106.622 30.1587 105.782 30.336 104.868 30.336ZM106.128 26.556C106.706 26.556 107.229 26.416 107.696 26.136C108.162 25.856 108.536 25.4547 108.816 24.932C109.096 24.3907 109.236 23.7653 109.236 23.056C109.236 22.3653 109.105 21.7587 108.844 21.236C108.582 20.7133 108.218 20.3027 107.752 20.004C107.285 19.7053 106.744 19.556 106.128 19.556C105.661 19.556 105.185 19.668 104.7 19.892C104.233 20.116 103.841 20.4893 103.524 21.012C103.206 21.516 103.048 22.188 103.048 23.028C103.048 23.6813 103.169 24.2787 103.412 24.82C103.673 25.3427 104.028 25.7627 104.476 26.08C104.942 26.3973 105.493 26.556 106.128 26.556ZM119.458 30.336C118.655 30.336 117.909 30.1773 117.218 29.86C116.527 29.524 115.967 29.048 115.538 28.432C115.127 27.7973 114.922 27.032 114.922 26.136C114.922 25.1093 115.193 24.2787 115.734 23.644C116.275 22.9907 116.994 22.5147 117.89 22.216C118.805 21.9173 119.803 21.768 120.886 21.768H124.022C124.022 21.2827 123.938 20.8533 123.77 20.48C123.602 20.1067 123.35 19.8173 123.014 19.612C122.678 19.388 122.258 19.276 121.754 19.276C121.231 19.276 120.755 19.388 120.326 19.612C119.897 19.836 119.626 20.2187 119.514 20.76H115.342C115.417 19.7333 115.762 18.856 116.378 18.128C116.994 17.3813 117.778 16.8027 118.73 16.392C119.701 15.9813 120.737 15.776 121.838 15.776C123.126 15.776 124.255 16.0187 125.226 16.504C126.215 16.9707 126.981 17.652 127.522 18.548C128.063 19.4253 128.334 20.4893 128.334 21.74V25.296C128.334 25.7067 128.39 26.024 128.502 26.248C128.633 26.472 128.959 26.584 129.482 26.584V30C128.586 30 127.839 29.944 127.242 29.832C126.645 29.72 126.141 29.5147 125.73 29.216C125.319 28.8987 124.946 28.4413 124.61 27.844C123.994 28.6653 123.266 29.2907 122.426 29.72C121.586 30.1307 120.597 30.336 119.458 30.336ZM120.97 27.032C121.511 27.032 122.006 26.92 122.454 26.696C122.921 26.4533 123.294 26.1173 123.574 25.688C123.854 25.2587 123.994 24.7733 123.994 24.232V24.064H121.334C120.961 24.064 120.615 24.12 120.298 24.232C119.981 24.3253 119.729 24.484 119.542 24.708C119.355 24.9133 119.262 25.2027 119.262 25.576C119.262 26.1173 119.439 26.5 119.794 26.724C120.149 26.9293 120.541 27.032 120.97 27.032ZM143.225 30.336C141.937 30.336 140.751 30.0653 139.669 29.524C138.586 28.964 137.718 28.1427 137.065 27.06C136.411 25.9773 136.085 24.6427 136.085 23.056C136.085 21.4693 136.402 20.1347 137.037 19.052C137.671 17.9693 138.53 17.1573 139.613 16.616C140.695 16.056 141.899 15.776 143.225 15.776C144.606 15.776 145.819 16.0653 146.865 16.644C147.929 17.204 148.759 18.016 149.357 19.08C149.973 20.1253 150.281 21.376 150.281 22.832C150.281 23.0187 150.271 23.224 150.253 23.448C150.253 23.6533 150.234 23.868 150.197 24.092H140.397C140.453 24.764 140.611 25.296 140.873 25.688C141.153 26.08 141.489 26.3693 141.881 26.556C142.291 26.724 142.693 26.808 143.085 26.808C143.626 26.808 144.083 26.696 144.457 26.472C144.83 26.248 145.119 25.9027 145.325 25.436H149.945C149.739 26.3133 149.329 27.1253 148.713 27.872C148.097 28.6187 147.322 29.216 146.389 29.664C145.474 30.112 144.419 30.336 143.225 30.336ZM140.397 21.684H145.829C145.829 20.9187 145.577 20.3213 145.073 19.892C144.569 19.4627 143.934 19.248 143.169 19.248C142.422 19.248 141.806 19.472 141.321 19.92C140.835 20.3493 140.527 20.9373 140.397 21.684ZM161.064 30.336C159.029 30.336 157.293 29.9067 155.856 29.048C154.418 28.1707 153.317 26.976 152.552 25.464C151.805 23.952 151.432 22.216 151.432 20.256C151.432 18.296 151.796 16.5507 152.524 15.02C153.27 13.4707 154.362 12.2573 155.8 11.38C157.237 10.5027 158.992 10.064 161.064 10.064C163.49 10.064 165.488 10.68 167.056 11.912C168.624 13.1253 169.585 14.852 169.94 17.092H165.096C164.909 16.14 164.452 15.4027 163.724 14.88C163.014 14.3573 162.1 14.096 160.98 14.096C160.009 14.096 159.141 14.3293 158.376 14.796C157.61 15.244 157.013 15.9253 156.584 16.84C156.154 17.736 155.94 18.8747 155.94 20.256C155.94 21.6 156.145 22.7293 156.556 23.644C156.985 24.54 157.582 25.2213 158.348 25.688C159.113 26.136 159.99 26.36 160.98 26.36C162.1 26.36 163.014 26.1267 163.724 25.66C164.452 25.1747 164.909 24.4933 165.096 23.616H169.94C169.585 25.7067 168.624 27.3493 167.056 28.544C165.488 29.7387 163.49 30.336 161.064 30.336ZM178.475 30.336C177.131 30.336 175.899 30.056 174.779 29.496C173.678 28.9173 172.791 28.0867 172.119 27.004C171.466 25.9213 171.139 24.6053 171.139 23.056C171.139 21.5813 171.457 20.3027 172.091 19.22C172.745 18.1373 173.631 17.2973 174.751 16.7C175.871 16.084 177.131 15.776 178.531 15.776C180.025 15.776 181.322 16.0933 182.423 16.728C183.525 17.344 184.383 18.2027 184.999 19.304C185.615 20.3867 185.923 21.6373 185.923 23.056C185.923 24.5307 185.597 25.8187 184.943 26.92C184.29 28.0027 183.403 28.8427 182.283 29.44C181.163 30.0373 179.894 30.336 178.475 30.336ZM178.503 26.584C179.119 26.584 179.651 26.4347 180.099 26.136C180.547 25.8373 180.893 25.4173 181.135 24.876C181.397 24.3347 181.527 23.7187 181.527 23.028C181.527 22.2627 181.387 21.628 181.107 21.124C180.846 20.6013 180.482 20.2093 180.015 19.948C179.567 19.6867 179.063 19.556 178.503 19.556C177.925 19.556 177.402 19.696 176.935 19.976C176.487 20.256 176.133 20.6573 175.871 21.18C175.61 21.7027 175.479 22.328 175.479 23.056C175.479 23.7467 175.601 24.3627 175.843 24.904C176.105 25.4267 176.459 25.8373 176.907 26.136C177.355 26.4347 177.887 26.584 178.503 26.584ZM187.171 30V16.112H191.483V17.68C191.969 17.064 192.547 16.5973 193.219 16.28C193.91 15.944 194.657 15.776 195.459 15.776C196.337 15.776 197.205 15.9907 198.063 16.42C198.922 16.8493 199.603 17.512 200.107 18.408C200.555 17.6987 201.171 17.0827 201.955 16.56C202.739 16.0373 203.654 15.776 204.699 15.776C205.819 15.776 206.799 16 207.639 16.448C208.479 16.896 209.123 17.568 209.571 18.464C210.038 19.3413 210.271 20.4333 210.271 21.74V30H205.987V22.3C205.987 21.4227 205.773 20.7413 205.343 20.256C204.914 19.752 204.279 19.5 203.439 19.5C202.581 19.5 201.937 19.752 201.507 20.256C201.097 20.76 200.891 21.4413 200.891 22.3V30H196.579V22.3C196.579 21.46 196.365 20.788 195.935 20.284C195.525 19.7613 194.89 19.5 194.031 19.5C193.191 19.5 192.557 19.752 192.127 20.256C191.698 20.7413 191.483 21.4227 191.483 22.3V30H187.171ZM211.726 30V16.112H216.038V17.68C216.523 17.064 217.102 16.5973 217.774 16.28C218.465 15.944 219.211 15.776 220.014 15.776C220.891 15.776 221.759 15.9907 222.618 16.42C223.477 16.8493 224.158 17.512 224.662 18.408C225.11 17.6987 225.726 17.0827 226.51 16.56C227.294 16.0373 228.209 15.776 229.254 15.776C230.374 15.776 231.354 16 232.194 16.448C233.034 16.896 233.678 17.568 234.126 18.464C234.593 19.3413 234.826 20.4333 234.826 21.74V30H230.542V22.3C230.542 21.4227 230.327 20.7413 229.898 20.256C229.469 19.752 228.834 19.5 227.994 19.5C227.135 19.5 226.491 19.752 226.062 20.256C225.651 20.76 225.446 21.4413 225.446 22.3V30H221.134V22.3C221.134 21.46 220.919 20.788 220.49 20.284C220.079 19.7613 219.445 19.5 218.586 19.5C217.746 19.5 217.111 19.752 216.682 20.256C216.253 20.7413 216.038 21.4227 216.038 22.3V30H211.726ZM243.057 30.336C241.769 30.336 240.583 30.0653 239.501 29.524C238.418 28.964 237.55 28.1427 236.897 27.06C236.243 25.9773 235.917 24.6427 235.917 23.056C235.917 21.4693 236.234 20.1347 236.869 19.052C237.503 17.9693 238.362 17.1573 239.445 16.616C240.527 16.056 241.731 15.776 243.057 15.776C244.438 15.776 245.651 16.0653 246.697 16.644C247.761 17.204 248.591 18.016 249.189 19.08C249.805 20.1253 250.113 21.376 250.113 22.832C250.113 23.0187 250.103 23.224 250.085 23.448C250.085 23.6533 250.066 23.868 250.029 24.092H240.229C240.285 24.764 240.443 25.296 240.705 25.688C240.985 26.08 241.321 26.3693 241.713 26.556C242.123 26.724 242.525 26.808 242.917 26.808C243.458 26.808 243.915 26.696 244.289 26.472C244.662 26.248 244.951 25.9027 245.157 25.436H249.777C249.571 26.3133 249.161 27.1253 248.545 27.872C247.929 28.6187 247.154 29.216 246.221 29.664C245.306 30.112 244.251 30.336 243.057 30.336ZM240.229 21.684H245.661C245.661 20.9187 245.409 20.3213 244.905 19.892C244.401 19.4627 243.766 19.248 243.001 19.248C242.254 19.248 241.638 19.472 241.153 19.92C240.667 20.3493 240.359 20.9373 240.229 21.684ZM251.32 30V16.112H255.632V18.268C256.117 17.5587 256.733 16.9707 257.48 16.504C258.226 16.0187 259.085 15.776 260.056 15.776V20.34H258.852C257.769 20.34 256.957 20.5827 256.416 21.068C255.893 21.5533 255.632 22.356 255.632 23.476V30H251.32ZM267.72 30.336C266.32 30.336 265.088 30.0373 264.024 29.44C262.96 28.8427 262.12 28.0027 261.504 26.92C260.907 25.8187 260.608 24.5307 260.608 23.056C260.608 21.6373 260.897 20.3867 261.476 19.304C262.055 18.2027 262.876 17.344 263.94 16.728C265.004 16.0933 266.264 15.776 267.72 15.776C269.363 15.776 270.8 16.2053 272.032 17.064C273.264 17.904 274.095 19.248 274.524 21.096H269.904C269.717 20.5547 269.428 20.1533 269.036 19.892C268.663 19.612 268.196 19.472 267.636 19.472C267.02 19.472 266.516 19.64 266.124 19.976C265.751 20.312 265.471 20.7507 265.284 21.292C265.116 21.8333 265.032 22.4213 265.032 23.056C265.032 23.672 265.116 24.26 265.284 24.82C265.471 25.3613 265.751 25.8 266.124 26.136C266.516 26.472 267.02 26.64 267.636 26.64C268.196 26.64 268.663 26.5 269.036 26.22C269.428 25.94 269.717 25.5387 269.904 25.016H274.524C274.263 26.1547 273.815 27.116 273.18 27.9C272.545 28.684 271.761 29.2907 270.828 29.72C269.913 30.1307 268.877 30.336 267.72 30.336ZM282.596 30.336C281.308 30.336 280.122 30.0653 279.04 29.524C277.957 28.964 277.089 28.1427 276.436 27.06C275.782 25.9773 275.456 24.6427 275.456 23.056C275.456 21.4693 275.773 20.1347 276.408 19.052C277.042 17.9693 277.901 17.1573 278.984 16.616C280.066 16.056 281.27 15.776 282.596 15.776C283.977 15.776 285.19 16.0653 286.236 16.644C287.3 17.204 288.13 18.016 288.728 19.08C289.344 20.1253 289.652 21.376 289.652 22.832C289.652 23.0187 289.642 23.224 289.624 23.448C289.624 23.6533 289.605 23.868 289.568 24.092H279.768C279.824 24.764 279.982 25.296 280.244 25.688C280.524 26.08 280.86 26.3693 281.252 26.556C281.662 26.724 282.064 26.808 282.456 26.808C282.997 26.808 283.454 26.696 283.828 26.472C284.201 26.248 284.49 25.9027 284.696 25.436H289.316C289.11 26.3133 288.7 27.1253 288.084 27.872C287.468 28.6187 286.693 29.216 285.76 29.664C284.845 30.112 283.79 30.336 282.596 30.336ZM279.768 21.684H285.2C285.2 20.9187 284.948 20.3213 284.444 19.892C283.94 19.4627 283.305 19.248 282.54 19.248C281.793 19.248 281.177 19.472 280.692 19.92C280.206 20.3493 279.898 20.9373 279.768 21.684Z" fill="white"/>
</svg>
